<svg width="116" height="54" viewBox="0 0 116 54" fill="none" xmlns="http://www.w3.org/2000/svg">
<path d="M30.3276 13.8283C29 12.5 23.5 7.5 18 5" stroke="#F4D259" stroke-width="3" stroke-linecap="round"/>
<path d="M45.8313 12.6627C45.5 12 41.2789 5.64524 41 5" stroke="#F4D259" stroke-width="3" stroke-linecap="round"/>
<path d="M62 12.5C62 7.44596 63 4.5 65.5 1.5" stroke="#F4D259" stroke-width="3" stroke-linecap="round"/>
<path d="M77 15.3299C78.0675 13.9066 79.1063 12.452 80.3318 11.1652C81.1718 10.2832 82 9 83 8" stroke="#F4D259" stroke-width="3" stroke-linecap="round"/>
<path d="M94.5 16.5C97.5 11.5 102.5 8 107.297 6.67468" stroke="#F4D259" stroke-width="3" stroke-linecap="round"/>
<path d="M103 27C104.702 27.0774 110.5 29 114 31.5" stroke="#F4D259" stroke-width="3" stroke-linecap="round"/>
<path d="M97 41C99.5 41.5 102.5 44 104.5 49" stroke="#F4D259" stroke-width="3" stroke-linecap="round"/>
<path d="M81 44C83 46 84.145 48.8895 85 52" stroke="#F4D259" stroke-width="3" stroke-linecap="round"/>
<path d="M64 45C64 47.282 64.1666 49.5609 64.1666 51.8301" stroke="#F4D259" stroke-width="3" stroke-linecap="round"/>
<path d="M49.1638 43C48 44.5 45 47 43.5 52" stroke="#F4D259" stroke-width="3" stroke-linecap="round"/>
<path d="M28.1615 42C22.5 44 18 49 16 51.5" stroke="#F4D259" stroke-width="3" stroke-linecap="round"/>
<path d="M13.9944 20.4974C12.3084 18.972 7.5 17.5 2 17.5" stroke="#F4D259" stroke-width="3" stroke-linecap="round"/>
<path d="M12.7461 35.108C11 35.108 7 36 2.5 40.5" stroke="#F4D259" stroke-width="3" stroke-linecap="round"/>
</svg>
